<svg xmlns="http://www.w3.org/2000/svg" width="32" height="32" viewBox="0 0 32 32"><defs><style>.a{fill:#18c38a;}</style></defs><g transform="translate(-25 -155.222)"><path class="a" d="M16.73,27.772l-5.9-6.233a1.21,1.21,0,0,1,.12-1.64,1.054,1.054,0,0,1,1.431,0l4.345,4.547,9.5-10.047a1.06,1.06,0,0,1,1.551.127,1.213,1.213,0,0,1,0,1.513Z" transform="translate(21.95 151.61)"/><path class="a" d="M16,32A16,16,0,0,1,9.773,1.257,16,16,0,0,1,22.229,30.742,15.894,15.894,0,0,1,16,32ZM16,2.4A13.6,13.6,0,0,0,6.384,25.616,13.6,13.6,0,0,0,25.618,6.382,13.512,13.512,0,0,0,16,2.4Z" transform="translate(25 155.222)"/></g></svg>