<svg xmlns="http://www.w3.org/2000/svg" width="230.356" height="218.002" viewBox="0 0 230.356 218.002"><defs><style>.a{fill:#e6e6e6;}.b{fill:#3289ff;}.c{fill:#ea0d6f;}.d{fill:#fff;}.e{fill:#3f3d56;}.f{fill:#414141;}.g{fill:#fefefe;}</style></defs><g transform="translate(-855 -284.381)"><g transform="translate(855 284.381)"><circle class="a" cx="3.05" cy="3.05" r="3.05"/><circle class="a" cx="3.05" cy="3.05" r="3.05" transform="translate(15.438)"/><circle class="a" cx="3.05" cy="3.05" r="3.05" transform="translate(30.875)"/><circle class="a" cx="3.05" cy="3.05" r="3.05" transform="translate(46.313)"/><circle class="a" cx="3.05" cy="3.05" r="3.05" transform="translate(61.75)"/><circle class="a" cx="3.05" cy="3.05" r="3.05" transform="translate(77.188)"/><circle class="a" cx="3.05" cy="3.05" r="3.05" transform="translate(92.625)"/><circle class="a" cx="3.05" cy="3.05" r="3.05" transform="translate(108.063)"/><circle class="a" cx="3.05" cy="3.05" r="3.05" transform="translate(123.501)"/><circle class="a" cx="3.05" cy="3.05" r="3.05" transform="translate(138.938)"/><circle class="a" cx="3.05" cy="3.05" r="3.05" transform="translate(0 15.631)"/><circle class="a" cx="3.05" cy="3.05" r="3.05" transform="translate(15.438 15.631)"/><circle class="a" cx="3.05" cy="3.05" r="3.05" transform="translate(30.875 15.631)"/><circle class="b" cx="3.05" cy="3.05" r="3.05" transform="translate(46.313 15.631)"/><circle class="a" cx="3.05" cy="3.05" r="3.05" transform="translate(61.75 15.631)"/><circle class="a" cx="3.05" cy="3.05" r="3.05" transform="translate(77.188 15.631)"/><circle class="a" cx="3.05" cy="3.05" r="3.05" transform="translate(92.625 15.631)"/><circle class="a" cx="3.05" cy="3.05" r="3.05" transform="translate(108.063 15.631)"/><circle class="a" cx="3.05" cy="3.05" r="3.05" transform="translate(123.501 15.631)"/><circle class="a" cx="3.05" cy="3.05" r="3.05" transform="translate(138.938 15.631)"/><circle class="a" cx="3.05" cy="3.05" r="3.05" transform="translate(0 31.263)"/><circle class="a" cx="3.05" cy="3.05" r="3.05" transform="translate(15.438 31.263)"/><circle class="c" cx="3.05" cy="3.05" r="3.05" transform="translate(30.875 31.263)"/><circle class="a" cx="3.05" cy="3.05" r="3.05" transform="translate(46.313 31.263)"/><circle class="a" cx="3.05" cy="3.05" r="3.05" transform="translate(61.75 31.263)"/><circle class="a" cx="3.05" cy="3.05" r="3.05" transform="translate(77.188 31.263)"/><circle class="a" cx="3.05" cy="3.05" r="3.05" transform="translate(92.625 31.263)"/><circle class="a" cx="3.05" cy="3.05" r="3.05" transform="translate(108.063 31.263)"/><circle class="a" cx="3.05" cy="3.05" r="3.05" transform="translate(123.501 31.263)"/><circle class="a" cx="3.05" cy="3.05" r="3.05" transform="translate(138.938 31.263)"/><circle class="a" cx="3.05" cy="3.05" r="3.05" transform="translate(0 46.894)"/><circle class="a" cx="3.05" cy="3.05" r="3.05" transform="translate(15.438 46.894)"/><circle class="a" cx="3.05" cy="3.05" r="3.05" transform="translate(30.875 46.894)"/><circle class="a" cx="3.05" cy="3.05" r="3.05" transform="translate(46.313 46.894)"/><circle class="a" cx="3.05" cy="3.05" r="3.05" transform="translate(61.75 46.894)"/><circle class="a" cx="3.05" cy="3.05" r="3.05" transform="translate(77.188 46.894)"/><circle class="a" cx="3.05" cy="3.05" r="3.05" transform="translate(92.625 46.894)"/><circle class="a" cx="3.05" cy="3.05" r="3.05" transform="translate(108.063 46.894)"/><circle class="a" cx="3.05" cy="3.05" r="3.05" transform="translate(123.501 46.894)"/><circle class="a" cx="3.05" cy="3.05" r="3.05" transform="translate(138.938 46.894)"/><circle class="a" cx="3.05" cy="3.05" r="3.05" transform="translate(0 62.525)"/><circle class="b" cx="3.05" cy="3.05" r="3.05" transform="translate(15.438 62.525)"/><circle class="a" cx="3.05" cy="3.05" r="3.05" transform="translate(30.875 62.525)"/><circle class="c" cx="3.05" cy="3.05" r="3.05" transform="translate(46.313 62.525)"/><circle class="a" cx="3.05" cy="3.05" r="3.05" transform="translate(61.75 62.525)"/><circle class="a" cx="3.05" cy="3.05" r="3.05" transform="translate(77.188 62.525)"/><circle class="a" cx="3.05" cy="3.05" r="3.05" transform="translate(92.625 62.525)"/><circle class="a" cx="3.05" cy="3.05" r="3.05" transform="translate(108.063 62.525)"/><circle class="a" cx="3.05" cy="3.05" r="3.05" transform="translate(123.501 62.525)"/><circle class="a" cx="3.05" cy="3.05" r="3.05" transform="translate(138.938 62.525)"/><circle class="a" cx="3.05" cy="3.05" r="3.05" transform="translate(0 78.157)"/><circle class="a" cx="3.05" cy="3.05" r="3.05" transform="translate(15.438 78.157)"/><circle class="a" cx="3.05" cy="3.05" r="3.05" transform="translate(30.875 78.157)"/><circle class="a" cx="3.05" cy="3.05" r="3.05" transform="translate(46.313 78.157)"/><circle class="a" cx="3.05" cy="3.05" r="3.05" transform="translate(61.75 78.157)"/><circle class="a" cx="3.05" cy="3.05" r="3.05" transform="translate(77.188 78.157)"/><circle class="a" cx="3.05" cy="3.05" r="3.05" transform="translate(92.625 78.157)"/><circle class="a" cx="3.05" cy="3.05" r="3.05" transform="translate(108.063 78.157)"/><circle class="a" cx="3.05" cy="3.05" r="3.05" transform="translate(123.501 78.157)"/><circle class="a" cx="3.05" cy="3.05" r="3.05" transform="translate(138.938 78.157)"/><circle class="a" cx="3.05" cy="3.05" r="3.05" transform="translate(0 93.788)"/><circle class="a" cx="3.05" cy="3.05" r="3.05" transform="translate(15.438 93.788)"/><circle class="b" cx="3.05" cy="3.05" r="3.05" transform="translate(30.875 93.788)"/><circle class="a" cx="3.05" cy="3.05" r="3.05" transform="translate(46.313 93.788)"/><circle class="a" cx="3.05" cy="3.05" r="3.05" transform="translate(61.75 93.788)"/><circle class="a" cx="3.05" cy="3.05" r="3.05" transform="translate(77.188 93.788)"/><circle class="a" cx="3.05" cy="3.05" r="3.05" transform="translate(92.625 93.788)"/><circle class="a" cx="3.05" cy="3.05" r="3.05" transform="translate(108.063 93.788)"/><circle class="a" cx="3.05" cy="3.05" r="3.05" transform="translate(123.501 93.788)"/><circle class="a" cx="3.05" cy="3.05" r="3.05" transform="translate(138.938 93.788)"/><circle class="b" cx="3.05" cy="3.05" r="3.05" transform="translate(0 109.419)"/><circle class="a" cx="3.05" cy="3.05" r="3.05" transform="translate(15.438 109.419)"/><circle class="a" cx="3.05" cy="3.05" r="3.05" transform="translate(30.875 109.419)"/><circle class="a" cx="3.05" cy="3.05" r="3.05" transform="translate(46.313 109.419)"/><circle class="a" cx="3.05" cy="3.05" r="3.05" transform="translate(61.75 109.419)"/><circle class="a" cx="3.05" cy="3.05" r="3.05" transform="translate(77.188 109.419)"/><circle class="a" cx="3.05" cy="3.05" r="3.05" transform="translate(92.625 109.419)"/><circle class="a" cx="3.05" cy="3.05" r="3.05" transform="translate(108.063 109.419)"/><circle class="a" cx="3.05" cy="3.05" r="3.05" transform="translate(123.501 109.419)"/><circle class="a" cx="3.05" cy="3.05" r="3.05" transform="translate(138.938 109.419)"/><circle class="a" cx="3.05" cy="3.05" r="3.05" transform="translate(0 125.051)"/><circle class="b" cx="3.05" cy="3.05" r="3.05" transform="translate(15.438 125.051)"/><circle class="a" cx="3.05" cy="3.05" r="3.05" transform="translate(30.875 125.051)"/><circle class="a" cx="3.05" cy="3.05" r="3.05" transform="translate(46.313 125.051)"/><circle class="a" cx="3.05" cy="3.05" r="3.05" transform="translate(61.75 125.051)"/><circle class="a" cx="3.05" cy="3.05" r="3.05" transform="translate(77.188 125.051)"/><circle class="a" cx="3.05" cy="3.05" r="3.05" transform="translate(92.625 125.051)"/><circle class="a" cx="3.05" cy="3.05" r="3.05" transform="translate(108.063 125.051)"/><circle class="a" cx="3.05" cy="3.05" r="3.05" transform="translate(123.501 125.051)"/><circle class="a" cx="3.05" cy="3.05" r="3.05" transform="translate(138.938 125.051)"/><circle class="a" cx="3.05" cy="3.05" r="3.05" transform="translate(0 140.682)"/><circle class="a" cx="3.05" cy="3.05" r="3.05" transform="translate(15.438 140.682)"/><circle class="a" cx="3.05" cy="3.05" r="3.05" transform="translate(30.875 140.682)"/><circle class="a" cx="3.05" cy="3.05" r="3.05" transform="translate(46.313 140.682)"/><circle class="a" cx="3.05" cy="3.05" r="3.05" transform="translate(61.75 140.682)"/><circle class="a" cx="3.05" cy="3.05" r="3.05" transform="translate(77.188 140.682)"/><circle class="a" cx="3.05" cy="3.05" r="3.05" transform="translate(92.625 140.682)"/><circle class="a" cx="3.05" cy="3.05" r="3.05" transform="translate(108.063 140.682)"/><circle class="a" cx="3.05" cy="3.05" r="3.05" transform="translate(123.501 140.682)"/><circle class="a" cx="3.05" cy="3.05" r="3.05" transform="translate(138.938 140.682)"/><path class="a" d="M467.888,193.831a3.856,3.856,0,0,1,3.856,3.856V351.914a3.856,3.856,0,0,1-3.856,3.856H357.23a3.856,3.856,0,0,1-3.856-3.856V197.686a3.856,3.856,0,0,1,3.856-3.856H467.888" transform="translate(-288.663 -166.575)"/><path class="d" d="M362.991,356.777h109.76V203.447H362.991Z" transform="translate(-293.976 -171.887)"/><path class="a" d="M477.516,257.643a.771.771,0,0,1,.771.771v1.542a.771.771,0,0,1-.771.771H416.6a.771.771,0,0,1-.771-.771v-1.542a.771.771,0,0,1,.771-.771h60.92" transform="translate(-323.161 -201.825)"/><path class="a" d="M477.516,274.009a.771.771,0,0,1,.771.771v1.542a.771.771,0,0,1-.771.771H416.6a.771.771,0,0,1-.771-.771v-1.542a.771.771,0,0,1,.771-.771h60.92" transform="translate(-323.161 -210.865)"/><path class="b" d="M477.516,290.376a.771.771,0,0,1,.771.771v1.542a.771.771,0,0,1-.771.771H416.6a.771.771,0,0,1-.771-.771v-1.542a.771.771,0,0,1,.771-.771h60.92" transform="translate(-323.161 -219.906)"/><path class="a" d="M477.516,307.1a.771.771,0,0,1,.771.771v1.542a.771.771,0,0,1-.771.771H416.6a.771.771,0,0,1-.771-.771v-1.542a.771.771,0,0,1,.771-.771h60.92" transform="translate(-323.161 -229.145)"/><path class="a" d="M477.516,323.467a.771.771,0,0,1,.771.771v1.542a.771.771,0,0,1-.771.771H416.6a.771.771,0,0,1-.771-.771v-1.542a.771.771,0,0,1,.771-.771h60.92" transform="translate(-323.161 -238.186)"/><path class="a" d="M477.516,339.834a.771.771,0,0,1,.771.771v1.542a.771.771,0,0,1-.771.771H416.6a.771.771,0,0,1-.771-.771V340.6a.771.771,0,0,1,.771-.771h60.92" transform="translate(-323.161 -247.226)"/><path class="b" d="M417.312,394.89a.9.9,0,0,0-.9.9v41.59a.9.9,0,0,0,.9.9H477.35a.9.9,0,0,0,.9-.9v-41.59a.9.9,0,0,0-.9-.9Z" transform="translate(-323.488 -277.639)"/><path class="e" d="M276.463,97.126l-.63-.167,13.754-51.738h79.775v.652H290.087Z" transform="translate(-152.368 -24.98)"/><path class="e" d="M699.706,177.286a6.844,6.844,0,1,1,6.844-6.844A6.844,6.844,0,0,1,699.706,177.286Zm0-13.037a6.192,6.192,0,1,0,6.192,6.193,6.193,6.193,0,0,0-6.192-6.193Z" transform="translate(-476.194 -149.875)"/><circle class="b" cx="2.607" cy="2.607" r="2.607" transform="translate(220.905 17.96)"/><path class="e" d="M157.709,356.941l.63.168L144.487,408.82l-79.775-.153v-.652l79.274.152Z" transform="translate(-35.746 -197.172)"/><path class="e" d="M250.522,589.4a6.844,6.844,0,1,1-6.857,6.831A6.844,6.844,0,0,1,250.522,589.4Zm-.025,13.037a6.193,6.193,0,1,0-6.181-6.2A6.193,6.193,0,0,0,250.5,602.432Z" transform="translate(-228.061 -385.082)"/><circle class="f" cx="2.607" cy="2.607" r="2.607" transform="translate(19.84 208.55)"/></g><path class="g" d="M23.765,19.507,16.854,7.991V3.327h.7a.7.7,0,0,0,0-1.4H10.56a.7.7,0,1,0,0,1.4h.7V7.991L4.348,19.507c-1.583,2.638-.361,4.8,2.716,4.8H21.049c3.077,0,4.3-2.159,2.716-4.8ZM8.136,15.913l4.523-7.538V3.327h2.8V8.376l4.523,7.538Z" transform="translate(963.503 411.235)"/></g></svg>