<svg xmlns="http://www.w3.org/2000/svg" width="27.998" height="28.004" viewBox="0 0 27.998 28.004"><defs><style>.a{fill:#414141;}</style></defs><g transform="translate(-1047.002 -851)"><path class="a" d="M-17693.9,22730.9a13.914,13.914,0,0,1-4.1-9.9,13.909,13.909,0,0,1,4.1-9.9,13.9,13.9,0,0,1,9.9-4.1,13.885,13.885,0,0,1,9.895,4.1,13.887,13.887,0,0,1,4.1,9.9,13.9,13.9,0,0,1-4.1,9.9,13.916,13.916,0,0,1-9.895,4.1A13.935,13.935,0,0,1-17693.9,22730.9Zm1.236-18.562a12.175,12.175,0,0,0-3.588,8.662,12.175,12.175,0,0,0,3.588,8.662,12.2,12.2,0,0,0,8.668,3.588,12.185,12.185,0,0,0,8.662-3.588,12.151,12.151,0,0,0,3.588-8.662,12.161,12.161,0,0,0-3.588-8.662,12.161,12.161,0,0,0-8.662-3.588A12.175,12.175,0,0,0-17692.664,22712.34Zm4.811,14.266a.959.959,0,0,1-.113-.234h-.006v-.029a.811.811,0,0,1,0-.41v-9.859a.83.83,0,0,1,.119-.686.952.952,0,0,1,1.262-.25l8.4,5.141a.843.843,0,0,1,.416.719.843.843,0,0,1-.416.719l-8.4,5.141a.97.97,0,0,1-.5.137A.93.93,0,0,1-17687.854,22726.605Zm1.707-2.066,5.8-3.543-5.8-3.543Z" transform="translate(18745 -21856)"/></g></svg>