<svg xmlns="http://www.w3.org/2000/svg" width="28" height="28.003" viewBox="0 0 28 28.003"><defs><style>.a{fill:#414141;}</style></defs><g transform="translate(-1038.001 -528.004)"><path class="a" d="M4.1,23.9A14,14,0,0,1,14,0,14,14,0,0,1,28,14,14,14,0,0,1,4.1,23.9ZM5.338,5.34A12.252,12.252,0,0,0,22.667,22.665,12.252,12.252,0,0,0,5.338,5.34ZM7.316,19.831a.5.5,0,0,1-.354-.853l1.166-1.166A7,7,0,1,1,18.6,19.286l-.025.022s-.012,0-.02.011l-.011.01,0,0A.872.872,0,0,1,17.4,18.012l-.006-.006a.29.29,0,0,0,.056-.041A5.252,5.252,0,1,0,9.4,16.536l.878-.879a.5.5,0,0,1,.854.354v3.321a.5.5,0,0,1-.5.5Z" transform="translate(1038.001 528.003)"/></g></svg>