<svg xmlns="http://www.w3.org/2000/svg" width="32" height="32" viewBox="0 0 32 32"><defs><style>.a{fill:none;}.b{fill:#414141;}</style></defs><rect class="a" width="32" height="32"/><g transform="translate(8.187 16)"><path class="a" d="M-347-164a8.006,8.006,0,0,1,8-8,8.006,8.006,0,0,1,8,8" transform="translate(347 172)"/></g><g transform="translate(8.5 8)"><circle class="a" cx="4.5" cy="4.5" r="4.5" transform="translate(3)"/><path class="b" d="M-337.4-171.3a4.462,4.462,0,0,0,2.9-4.2A4.481,4.481,0,0,0-339-180a4.481,4.481,0,0,0-4.5,4.5,4.563,4.563,0,0,0,2.9,4.2,7.687,7.687,0,0,0-5.9,7.3h1a6.487,6.487,0,0,1,6.5-6.5,6.487,6.487,0,0,1,6.5,6.5h1A7.493,7.493,0,0,0-337.4-171.3Zm-5.1-4.2A3.543,3.543,0,0,1-339-179a3.543,3.543,0,0,1,3.5,3.5A3.543,3.543,0,0,1-339-172,3.543,3.543,0,0,1-342.5-175.5Z" transform="translate(346.5 180)"/></g></svg>