<svg xmlns="http://www.w3.org/2000/svg" xmlns:xlink="http://www.w3.org/1999/xlink" width="471" height="199" viewBox="0 0 471 199">
  <defs>
    <clipPath id="clip-Artboard_1">
      <rect width="471" height="199"/>
    </clipPath>
  </defs>
  <g id="Artboard_1" data-name="Artboard – 1" clip-path="url(#clip-Artboard_1)">
    <g id="Group_22461" data-name="Group 22461" transform="translate(-1098 -55)">
      <g id="Component_207_48" data-name="Component 207 – 48" transform="translate(1133.996 85.002)">
        <path id="Union_23" data-name="Union 23" d="M1792,18472a10,10,0,1,1,10,10A10.013,10.013,0,0,1,1792,18472Zm2,0a8,8,0,1,0,8-8A8.009,8.009,0,0,0,1794,18472Zm7,4v-5a1,1,0,1,1,2,0v5a1,1,0,0,1-2,0Zm0-8a1,1,0,1,1,1,1A1,1,0,0,1,1801,18468Z" transform="translate(-1791.998 -18462.002)" fill="#414141"/>
      </g>
      <g id="Component_207_49" data-name="Component 207 – 49" transform="translate(1133.996 133.002)">
        <path id="Union_23-2" data-name="Union 23" d="M1792,18472a10,10,0,1,1,10,10A10.013,10.013,0,0,1,1792,18472Zm2,0a8,8,0,1,0,8-8A8.009,8.009,0,0,0,1794,18472Zm7,4v-5a1,1,0,1,1,2,0v5a1,1,0,0,1-2,0Zm0-8a1,1,0,1,1,1,1A1,1,0,0,1,1801,18468Z" transform="translate(-1791.998 -18462.002)" fill="#3289ff"/>
      </g>
      <g id="Group_22459" data-name="Group 22459" transform="translate(137.998 -770)">
        <path id="Union_32" data-name="Union 32" d="M-17693.9,22730.9a13.914,13.914,0,0,1-4.1-9.9,13.909,13.909,0,0,1,4.1-9.9,13.9,13.9,0,0,1,9.9-4.1,13.885,13.885,0,0,1,9.895,4.1,13.887,13.887,0,0,1,4.1,9.9,13.9,13.9,0,0,1-4.1,9.9,13.916,13.916,0,0,1-9.895,4.1A13.935,13.935,0,0,1-17693.9,22730.9Zm1.236-18.562a12.175,12.175,0,0,0-3.588,8.662,12.175,12.175,0,0,0,3.588,8.662,12.2,12.2,0,0,0,8.668,3.588,12.185,12.185,0,0,0,8.662-3.588,12.151,12.151,0,0,0,3.588-8.662,12.161,12.161,0,0,0-3.588-8.662,12.161,12.161,0,0,0-8.662-3.588A12.175,12.175,0,0,0-17692.664,22712.34Zm4.811,14.266a.959.959,0,0,1-.113-.234h-.006v-.029a.811.811,0,0,1,0-.41v-9.859a.83.83,0,0,1,.119-.686.952.952,0,0,1,1.262-.25l8.4,5.141a.843.843,0,0,1,.416.719.843.843,0,0,1-.416.719l-8.4,5.141a.97.97,0,0,1-.5.137A.93.93,0,0,1-17687.854,22726.605Zm1.707-2.066,5.8-3.543-5.8-3.543Z" transform="translate(18745 -21856)" fill="#414141"/>
      </g>
      <g id="Group_22460" data-name="Group 22460" transform="translate(137.998 -722)">
        <path id="Union_32-2" data-name="Union 32" d="M-17693.9,22730.9a13.914,13.914,0,0,1-4.1-9.9,13.909,13.909,0,0,1,4.1-9.9,13.9,13.9,0,0,1,9.9-4.1,13.885,13.885,0,0,1,9.895,4.1,13.887,13.887,0,0,1,4.1,9.9,13.9,13.9,0,0,1-4.1,9.9,13.916,13.916,0,0,1-9.895,4.1A13.935,13.935,0,0,1-17693.9,22730.9Zm1.236-18.562a12.175,12.175,0,0,0-3.588,8.662,12.175,12.175,0,0,0,3.588,8.662,12.2,12.2,0,0,0,8.668,3.588,12.185,12.185,0,0,0,8.662-3.588,12.151,12.151,0,0,0,3.588-8.662,12.161,12.161,0,0,0-3.588-8.662,12.161,12.161,0,0,0-8.662-3.588A12.175,12.175,0,0,0-17692.664,22712.34Zm4.811,14.266a.959.959,0,0,1-.113-.234h-.006v-.029a.811.811,0,0,1,0-.41v-9.859a.83.83,0,0,1,.119-.686.952.952,0,0,1,1.262-.25l8.4,5.141a.843.843,0,0,1,.416.719.843.843,0,0,1-.416.719l-8.4,5.141a.97.97,0,0,1-.5.137A.93.93,0,0,1-17687.854,22726.605Zm1.707-2.066,5.8-3.543-5.8-3.543Z" transform="translate(18745 -21856)" fill="#3289ff"/>
      </g>
      <g id="Component_307_11" data-name="Component 307 – 11" transform="translate(1233 80.998)">
        <path id="Union_27" data-name="Union 27" d="M4.1,23.9A14,14,0,1,1,23.9,4.1,14,14,0,1,1,4.1,23.9ZM5.337,5.338A12.252,12.252,0,0,0,22.665,22.663,12.252,12.252,0,0,0,5.337,5.338ZM15.751,17.5v-7a.875.875,0,0,1,1.75,0v7a.875.875,0,1,1-1.75,0Zm-5.251,0v-7a.875.875,0,0,1,1.75,0v7a.875.875,0,1,1-1.75,0Z" fill="#414141"/>
      </g>
      <g id="Component_307_12" data-name="Component 307 – 12" transform="translate(1233 128.998)">
        <path id="Union_27-2" data-name="Union 27" d="M4.1,23.9A14,14,0,1,1,23.9,4.1,14,14,0,1,1,4.1,23.9ZM5.337,5.338A12.252,12.252,0,0,0,22.665,22.663,12.252,12.252,0,0,0,5.337,5.338ZM15.751,17.5v-7a.875.875,0,0,1,1.75,0v7a.875.875,0,1,1-1.75,0Zm-5.251,0v-7a.875.875,0,0,1,1.75,0v7a.875.875,0,1,1-1.75,0Z" fill="#3289ff"/>
      </g>
      <g id="Component_308_8" data-name="Component 308 – 8" transform="translate(1281 81)">
        <path id="Union_26" data-name="Union 26" d="M4.1,23.9A14,14,0,1,1,23.9,4.1,14,14,0,1,1,4.1,23.9ZM5.337,5.339a12.253,12.253,0,0,0,17.33,17.326A12.253,12.253,0,0,0,5.337,5.339ZM11,18.752a2,2,0,0,1-2-2V11a2,2,0,0,1,2-2h5.75a2,2,0,0,1,2,2v5.75a2,2,0,0,1-2,2Zm-.228-1.772h6.205V10.774H10.773Z" transform="translate(0.001)" fill="#414141"/>
      </g>
      <g id="Component_308_9" data-name="Component 308 – 9" transform="translate(1281 129)">
        <path id="Union_26-2" data-name="Union 26" d="M4.1,23.9A14,14,0,1,1,23.9,4.1,14,14,0,1,1,4.1,23.9ZM5.337,5.339a12.253,12.253,0,0,0,17.33,17.326A12.253,12.253,0,0,0,5.337,5.339ZM11,18.752a2,2,0,0,1-2-2V11a2,2,0,0,1,2-2h5.75a2,2,0,0,1,2,2v5.75a2,2,0,0,1-2,2Zm-.228-1.772h6.205V10.774H10.773Z" transform="translate(0.001)" fill="#3289ff"/>
      </g>
      <g id="Component_309_8" data-name="Component 309 – 8" transform="translate(1329.002 81)">
        <path id="Union_28" data-name="Union 28" d="M4.1,23.9A14,14,0,0,1,14,0,14,14,0,0,1,28,14,14,14,0,0,1,4.1,23.9ZM5.338,5.34A12.252,12.252,0,0,0,22.667,22.665,12.252,12.252,0,0,0,5.338,5.34ZM7.316,19.831a.5.5,0,0,1-.354-.853l1.166-1.166A7,7,0,1,1,18.6,19.286l-.025.022s-.012,0-.02.011l-.011.01,0,0A.872.872,0,0,1,17.4,18.012l-.006-.006a.29.29,0,0,0,.056-.041A5.252,5.252,0,1,0,9.4,16.536l.878-.879a.5.5,0,0,1,.854.354v3.321a.5.5,0,0,1-.5.5Z" transform="translate(0 -0.001)" fill="#414141"/>
      </g>
      <g id="Component_309_9" data-name="Component 309 – 9" transform="translate(1329.002 129.004)">
        <path id="Union_28-2" data-name="Union 28" d="M4.1,23.9A14,14,0,0,1,14,0,14,14,0,0,1,28,14,14,14,0,0,1,4.1,23.9ZM5.338,5.34A12.252,12.252,0,0,0,22.667,22.665,12.252,12.252,0,0,0,5.338,5.34ZM7.316,19.831a.5.5,0,0,1-.354-.853l1.166-1.166A7,7,0,1,1,18.6,19.286l-.025.022s-.012,0-.02.011l-.011.01,0,0A.872.872,0,0,1,17.4,18.012l-.006-.006a.29.29,0,0,0,.056-.041A5.252,5.252,0,1,0,9.4,16.536l.878-.879a.5.5,0,0,1,.854.354v3.321a.5.5,0,0,1-.5.5Z" transform="translate(0 -0.001)" fill="#3289ff"/>
      </g>
      <g id="Component_371_96" data-name="Component 371 – 96" transform="translate(1390 134)">
        <circle id="Ellipse_271" data-name="Ellipse 271" cx="1.5" cy="1.5" r="1.5" fill="#3289ff"/>
        <circle id="Ellipse_272" data-name="Ellipse 272" cx="1.5" cy="1.5" r="1.5" transform="translate(0 7)" fill="#3289ff"/>
        <circle id="Ellipse_273" data-name="Ellipse 273" cx="1.5" cy="1.5" r="1.5" transform="translate(0 14)" fill="#3289ff"/>
      </g>
      <g id="Component_371_97" data-name="Component 371 – 97" transform="translate(1390 87)">
        <circle id="Ellipse_271-2" data-name="Ellipse 271" cx="1.5" cy="1.5" r="1.5" fill="#414141"/>
        <circle id="Ellipse_272-2" data-name="Ellipse 272" cx="1.5" cy="1.5" r="1.5" transform="translate(0 7)" fill="#414141"/>
        <circle id="Ellipse_273-2" data-name="Ellipse 273" cx="1.5" cy="1.5" r="1.5" transform="translate(0 14)" fill="#414141"/>
      </g>
    </g>
    <g id="icon-add-sm-light" transform="translate(339 33.999)">
      <line id="Line_464" data-name="Line 464" x2="11.382" transform="translate(0 5.691)" fill="none" stroke="#fff" stroke-miterlimit="10" stroke-width="1.7"/>
      <line id="Line_465" data-name="Line 465" y1="11.382" transform="translate(5.691)" fill="none" stroke="#fff" stroke-miterlimit="10" stroke-width="1.7"/>
    </g>
    <g id="icon-add-sm-light-2" data-name="icon-add-sm-light" transform="translate(339 81.334)">
      <line id="Line_464-2" data-name="Line 464" x2="11.382" transform="translate(0 5.691)" fill="none" stroke="#3289ff" stroke-miterlimit="10" stroke-width="1.7"/>
      <line id="Line_465-2" data-name="Line 465" y1="11.382" transform="translate(5.691)" fill="none" stroke="#3289ff" stroke-miterlimit="10" stroke-width="1.7"/>
    </g>
  </g>
</svg>
